<mxfile host="app.diagrams.net" modified="2023-08-08T20:56:00.215Z" agent="Mozilla/5.0 (Macintosh; Intel Mac OS X 10_15_7) AppleWebKit/537.36 (KHTML, like Gecko) Chrome/115.0.0.0 Safari/537.36" version="21.3.8" etag="625lg9wWqHbN2HrCBoVB" type="github">
  <diagram name="Page-1" id="M7zAT4PfVUSN-6UCptaN">
    <mxGraphModel>
      <root>
        <mxCell id="0" />
        <mxCell id="1" parent="0" />
      </root>
    </mxGraphModel>
  </diagram>
</mxfile>
